::General::
Complete name: The Girl With The Dragon Tattoo 2011 BrRip 1080p x264 Dual-Audio [English 5.1-Hindi 5.1] NimitMak SilverRG
Format: Matroska
File size: 2.72 GiB
Duration: 2h 38mn
Overall Bitrate: 2465 Kbps
Language: [Dual-Audio] English-Hindi
Sub Title: English
Encoder: NimitMak

::IMDB INFO::
IMDB Link:http://www.imdb.com/title/tt1568346/
IMDB Rating:7.9/10
Release Date:20 December 2011 (USA)
Genre: Crime | Drama | Mystery 

::Video::
Format/Info: Advanced Video Codec
Bitrate: 1856 Kbps
Width: 1920 pixels
Height: 798 pixels
Display aspect ratio: 2.40:1
Frame rate: 23.976 fps

::Audio #1::
ID : 2
Format: AC-3
Format/Info: Audio Coding 3
Duration: 2h 38mn
Bit rate mode: Constant
Bit rate: 448 Kbps
Channel(s) : 6 channels
Channel positions: Front: L C R, Side: L R, LFE
Sampling rate: 48.0 KHz
Bit depth : 16 bits
Compression mode: Lossy
Stream size: 507 MiB (18%)
Title: Hindi - NimitMak SilverRG

::Audio #2::
ID : 3
Format: AC-3
Format/Info: Audio Coding 3
Duration: 2h 38mn
Bit rate mode: Constant
Bit rate: 192 Kbps
Channel(s): 6 channels
Channel positions: Front: L C R, Side: L R, LFE
Sampling rate: 48.0 KHz
Bit depth: 16 bits
Compression mode: Lossy
Stream size: 217 MiB (8%)
Title: English - NimitMak SilverRG

::Text::
ID : 4
Format: UTF-8
Codec ID: S_TEXT/UTF8
Codec ID/Info: UTF-8 Plain Text
Title : English - NimitMak SilverRG

Screens : 
 
http://i.imgbox.com/abppRrkz 
http://i.imgbox.com/abkhC6qi 
http://i.imgbox.com/abn8Ogof 
http://i.imgbox.com/ack4C1tm 
http://i.imgbox.com/accebHCv 
http://i.imgbox.com/abixcnjm 
http://i.imgbox.com/achE8csc 
http://i.imgbox.com/abg3VEIR 
http://i.imgbox.com/acrv9Ol4 
http://i.imgbox.com/abvWokwh 
http://i.imgbox.com/abvEgyT2 
http://i.imgbox.com/ackeGYF7 
http://i.imgbox.com/abnaYRrH 
http://i.imgbox.com/achV8069